#N canvas -8 -8 1920 997 12;
#X obj 247 824 +~;
#X obj 411 358 delread~ delay, f 5;
#X floatatom 411 333 5 0 0 0 - - -;
#X obj 462 358 delread~ delay, f 5;
#X floatatom 462 333 5 0 0 0 - - -;
#X obj 513 358 delread~ delay, f 5;
#X floatatom 513 333 5 0 0 0 - - -;
#X obj 564 358 delread~ delay, f 5;
#X floatatom 564 334 5 0 0 0 - - -;
#X obj 462 280 log 10;
#X obj 513 280 log 10;
#X obj 564 280 log 10;
#X obj 874 294 hsl 128 15 0 5000 0 0 empty delayparam empty -2 -8 0
10 -262144 -1 -1 0 1;
#X floatatom 863 328 5 0 0 0 - - delayparam_num;
#X obj 411 280 log 10;
#X obj 564 310 *;
#X obj 513 310 *;
#X obj 462 310 *;
#X obj 411 310 *;
#X obj 613 121 bng 15 250 50 0 empty empty empty 17 7 0 10 -262144
-1 -1;
#X obj 159 766 delwrite~ delay 10000;
#X msg 411 254 2, f 1;
#X msg 462 253 3, f 1;
#X msg 513 253 4, f 1;
#X msg 564 253 5, f 1;
#X obj 615 358 delread~ delay, f 5;
#X floatatom 615 333 5 0 0 0 - - -;
#X obj 666 358 delread~ delay, f 5;
#X floatatom 666 333 5 0 0 0 - - -;
#X obj 717 357 delread~ delay, f 5;
#X floatatom 717 333 5 0 0 0 - - -;
#X obj 768 358 delread~ delay, f 5;
#X floatatom 768 334 5 0 0 0 - - -;
#X obj 666 280 log 10;
#X obj 717 280 log 10;
#X obj 768 280 log 10;
#X obj 615 280 log 10;
#X obj 768 310 *;
#X obj 717 310 *;
#X obj 666 310 *;
#X obj 615 310 *;
#X msg 615 253 6, f 1;
#X msg 666 253 7, f 1;
#X msg 717 253 8, f 1;
#X msg 768 253 9, f 1;
#X text 1004 293 DELAY;
#N canvas 119 273 374 495 feedback 0;
#X msg 106 55 1, f 1;
#X text 94 56 1;
#X msg 106 95 1, f 1;
#X msg 128 95 1, f 1;
#X msg 106 135 1, f 1;
#X msg 128 135 1, f 1;
#X msg 150 135 1, f 1;
#X msg 106 176 1, f 1;
#X msg 128 176 1, f 1;
#X msg 150 176 1, f 1;
#X msg 172 176 1, f 1;
#X msg 106 216 1, f 1;
#X msg 128 216 1, f 1;
#X msg 150 216 1, f 1;
#X msg 172 216 1, f 1;
#X msg 194 216 1, f 1;
#X msg 106 257 1, f 1;
#X msg 128 257 1, f 1;
#X msg 150 257 1, f 1;
#X msg 172 257 1, f 1;
#X msg 194 257 1, f 1;
#X msg 216 257 1, f 1;
#X msg 106 297 1, f 1;
#X msg 128 297 1, f 1;
#X msg 150 297 1, f 1;
#X msg 172 297 1, f 1;
#X msg 194 297 1, f 1;
#X msg 216 297 1, f 1;
#X msg 238 297 1, f 1;
#X msg 106 338 1, f 1;
#X msg 128 338 1, f 1;
#X msg 150 338 1, f 1;
#X msg 172 338 1, f 1;
#X msg 194 338 1, f 1;
#X msg 216 338 1, f 1;
#X msg 238 338 1, f 1;
#X msg 260 338 1, f 1;
#X msg 128 55 0, f 1;
#X msg 150 55 0, f 1;
#X msg 172 55 0, f 1;
#X msg 194 55 0, f 1;
#X msg 216 55 0, f 1;
#X msg 238 55 0, f 1;
#X msg 260 55 0, f 1;
#X msg 150 95 0, f 1;
#X msg 172 95 0, f 1;
#X msg 194 95 0, f 1;
#X msg 216 95 0, f 1;
#X msg 238 95 0, f 1;
#X msg 260 95 0, f 1;
#X msg 172 135 0, f 1;
#X msg 194 135 0, f 1;
#X msg 216 135 0, f 1;
#X msg 238 135 0, f 1;
#X msg 260 135 0, f 1;
#X msg 194 176 0, f 1;
#X msg 216 176 0, f 1;
#X msg 238 176 0, f 1;
#X msg 260 176 0, f 1;
#X msg 216 216 0, f 1;
#X msg 238 216 0, f 1;
#X msg 260 216 0, f 1;
#X msg 238 257 0, f 1;
#X msg 260 257 0, f 1;
#X msg 260 297 0, f 1;
#X obj 74 40 bng 15 250 50 0 empty empty empty 17 7 0 10 -262144 -1
-1;
#X obj 75 80 bng 15 250 50 0 empty empty empty 17 7 0 10 -262144 -1
-1;
#X obj 75 120 bng 15 250 50 0 empty empty empty 17 7 0 10 -262144 -1
-1;
#X obj 75 161 bng 15 250 50 0 empty empty empty 17 7 0 10 -262144 -1
-1;
#X obj 75 201 bng 15 250 50 0 empty empty empty 17 7 0 10 -262144 -1
-1;
#X obj 75 242 bng 15 250 50 0 empty empty empty 17 7 0 10 -262144 -1
-1;
#X obj 75 282 bng 15 250 50 0 empty empty empty 17 7 0 10 -262144 -1
-1;
#X obj 75 323 bng 15 250 50 0 empty empty empty 17 7 0 10 -262144 -1
-1;
#X text 94 96 2;
#X text 94 136 3;
#X text 94 177 4;
#X text 94 217 5;
#X text 94 258 6;
#X text 94 298 7;
#X text 94 339 8;
#X obj 106 370 outlet, f 2;
#X obj 128 370 outlet, f 2;
#X obj 150 370 outlet, f 2;
#X obj 172 370 outlet, f 2;
#X obj 194 370 outlet, f 2;
#X obj 216 370 outlet, f 2;
#X obj 238 370 outlet, f 2;
#X obj 260 370 outlet, f 2;
#X obj 22 101 inlet;
#X obj 24 142 inlet;
#X obj 17 21 inlet;
#X obj 19 61 inlet;
#X obj 30 263 inlet;
#X obj 32 304 inlet;
#X obj 26 182 inlet;
#X obj 28 223 inlet;
#X connect 0 0 80 0;
#X connect 2 0 80 0;
#X connect 3 0 81 0;
#X connect 4 0 80 0;
#X connect 5 0 81 0;
#X connect 6 0 82 0;
#X connect 7 0 80 0;
#X connect 8 0 81 0;
#X connect 9 0 82 0;
#X connect 10 0 83 0;
#X connect 11 0 80 0;
#X connect 12 0 81 0;
#X connect 13 0 82 0;
#X connect 14 0 83 0;
#X connect 15 0 84 0;
#X connect 16 0 80 0;
#X connect 17 0 81 0;
#X connect 18 0 82 0;
#X connect 19 0 83 0;
#X connect 20 0 84 0;
#X connect 21 0 85 0;
#X connect 22 0 80 0;
#X connect 23 0 81 0;
#X connect 24 0 82 0;
#X connect 25 0 83 0;
#X connect 26 0 84 0;
#X connect 27 0 85 0;
#X connect 28 0 86 0;
#X connect 29 0 80 0;
#X connect 30 0 81 0;
#X connect 31 0 82 0;
#X connect 32 0 83 0;
#X connect 33 0 84 0;
#X connect 34 0 85 0;
#X connect 35 0 86 0;
#X connect 36 0 87 0;
#X connect 37 0 81 0;
#X connect 38 0 82 0;
#X connect 39 0 83 0;
#X connect 40 0 84 0;
#X connect 41 0 85 0;
#X connect 42 0 86 0;
#X connect 43 0 87 0;
#X connect 44 0 82 0;
#X connect 45 0 83 0;
#X connect 46 0 84 0;
#X connect 47 0 85 0;
#X connect 48 0 86 0;
#X connect 49 0 87 0;
#X connect 50 0 83 0;
#X connect 51 0 84 0;
#X connect 52 0 85 0;
#X connect 53 0 86 0;
#X connect 54 0 87 0;
#X connect 55 0 84 0;
#X connect 56 0 85 0;
#X connect 57 0 86 0;
#X connect 58 0 87 0;
#X connect 59 0 85 0;
#X connect 60 0 86 0;
#X connect 61 0 87 0;
#X connect 62 0 86 0;
#X connect 63 0 87 0;
#X connect 64 0 87 0;
#X connect 65 0 0 0;
#X connect 65 0 37 0;
#X connect 65 0 38 0;
#X connect 65 0 39 0;
#X connect 65 0 40 0;
#X connect 65 0 41 0;
#X connect 65 0 43 0;
#X connect 65 0 42 0;
#X connect 66 0 2 0;
#X connect 66 0 3 0;
#X connect 66 0 44 0;
#X connect 66 0 45 0;
#X connect 66 0 46 0;
#X connect 66 0 47 0;
#X connect 66 0 48 0;
#X connect 66 0 49 0;
#X connect 67 0 4 0;
#X connect 67 0 5 0;
#X connect 67 0 6 0;
#X connect 67 0 50 0;
#X connect 67 0 51 0;
#X connect 67 0 52 0;
#X connect 67 0 53 0;
#X connect 67 0 54 0;
#X connect 68 0 7 0;
#X connect 68 0 8 0;
#X connect 68 0 9 0;
#X connect 68 0 10 0;
#X connect 68 0 55 0;
#X connect 68 0 56 0;
#X connect 68 0 57 0;
#X connect 68 0 58 0;
#X connect 69 0 11 0;
#X connect 69 0 12 0;
#X connect 69 0 13 0;
#X connect 69 0 14 0;
#X connect 69 0 15 0;
#X connect 69 0 59 0;
#X connect 69 0 60 0;
#X connect 69 0 61 0;
#X connect 70 0 16 0;
#X connect 70 0 17 0;
#X connect 70 0 18 0;
#X connect 70 0 19 0;
#X connect 70 0 20 0;
#X connect 70 0 21 0;
#X connect 70 0 62 0;
#X connect 70 0 63 0;
#X connect 71 0 22 0;
#X connect 71 0 23 0;
#X connect 71 0 24 0;
#X connect 71 0 25 0;
#X connect 71 0 26 0;
#X connect 71 0 27 0;
#X connect 71 0 28 0;
#X connect 71 0 64 0;
#X connect 72 0 29 0;
#X connect 72 0 30 0;
#X connect 72 0 31 0;
#X connect 72 0 32 0;
#X connect 72 0 33 0;
#X connect 72 0 34 0;
#X connect 72 0 35 0;
#X connect 72 0 36 0;
#X connect 88 0 67 0;
#X connect 89 0 68 0;
#X connect 90 0 65 0;
#X connect 91 0 66 0;
#X connect 92 0 71 0;
#X connect 93 0 72 0;
#X connect 94 0 69 0;
#X connect 95 0 70 0;
#X restore 859 405 pd feedback;
#X f 34;
#X obj 411 424 *~;
#X obj 462 424 *~;
#X obj 513 424 *~;
#X obj 564 424 *~;
#X obj 615 424 *~;
#X obj 666 424 *~;
#X obj 717 424 *~;
#X obj 768 424 *~;
#X obj 859 378 bng 20 250 50 0 empty feed1 empty 17 7 0 10 -262144
-1 -1;
#X obj 892 378 bng 20 250 50 0 empty feed2 empty 17 7 0 10 -262144
-1 -1;
#X obj 926 378 bng 20 250 50 0 empty feed3 empty 17 7 0 10 -262144
-1 -1;
#X obj 959 378 bng 20 250 50 0 empty feed4 empty 17 7 0 10 -262144
-1 -1;
#X obj 993 378 bng 20 250 50 0 empty feed5 empty 17 7 0 10 -262144
-1 -1;
#X obj 1026 378 bng 20 250 50 0 empty feed6 empty 17 7 0 10 -262144
-1 -1;
#X obj 1060 378 bng 20 250 50 0 empty feed7 empty 17 7 0 10 -262144
-1 -1;
#X obj 1094 378 bng 20 250 50 0 empty feed8 empty 17 7 0 10 -262144
-1 -1;
#X obj 640 80 bng 15 250 50 0 empty empty empty 17 7 0 10 -262144 -1
-1;
#X obj 640 102 metro 200;
#X obj 640 54 loadbang;
#X floatatom 974 463 5 0 0 0 - - feedparam_num;
#X msg 859 432 1, f 2;
#X msg 892 432 2, f 2;
#X msg 926 432 3, f 2;
#X msg 959 432 4, f 2;
#X msg 993 432 5, f 2;
#X msg 1026 432 6, f 2;
#X msg 1060 432 7, f 2;
#X msg 1094 432 8, f 2;
#X obj 464 620 *~ 0.8;
#X obj 515 620 *~ 0.7;
#X obj 566 620 *~ 0.6;
#X obj 617 620 *~ 0.5;
#X obj 668 620 *~ 0.4;
#X obj 719 620 *~ 0.3;
#X obj 770 620 *~ 0.2;
#X obj 861 536 hsl 128 15 0 1 0 0 empty decayparam empty -2 -8 0 10
-262144 -1 -1 12700 1;
#X floatatom 858 553 5 0 0 0 - - -;
#X obj 412 571 *~;
#X obj 514 571 *~;
#X obj 565 571 *~;
#X obj 616 571 *~;
#X obj 667 571 *~;
#X obj 718 571 *~;
#X obj 769 571 *~;
#X obj 463 571 *~;
#X obj 413 620 *~ 0.9;
#X msg 592 762 \$1 20;
#X obj 592 786 line;
#X obj 441 805 lop~;
#X msg 540 762 \$1 20;
#X obj 540 786 line;
#X obj 389 805 hip~;
#X obj 412 689 +~;
#X obj 871 747 hsl 128 15 0 800 0 0 empty hpparam empty -2 -8 0 10
-262144 -1 -1 0 1;
#X obj 1011 747 hsl 128 15 600 20000 0 0 empty lpparam empty -2 -8
0 10 -262144 -1 -1 12700 1;
#X floatatom 1008 767 5 0 0 0 - - -;
#X obj 1094 355 loadbang;
#X msg 856 513 1;
#X obj 856 488 loadbang;
#X msg 868 699 0;
#X msg 1008 699 20000;
#X obj 920 680 loadbang;
#X obj 1664 319 hsl 169 20 0 5000 0 0 delayparam empty empty -2 -8
0 10 -262144 -1 -1 0 1;
#X text 1622 321 DELAY;
#X obj 1661 369 bng 20 250 50 0 feed1 empty empty 17 7 0 10 -262144
-1 -1;
#X obj 1683 369 bng 20 250 50 0 feed2 empty empty 17 7 0 10 -262144
-1 -1;
#X obj 1705 369 bng 20 250 50 0 feed3 empty empty 17 7 0 10 -262144
-1 -1;
#X obj 1727 369 bng 20 250 50 0 feed4 empty empty 17 7 0 10 -262144
-1 -1;
#X obj 1749 369 bng 20 250 50 0 feed5 empty empty 17 7 0 10 -262144
-1 -1;
#X obj 1771 369 bng 20 250 50 0 feed6 empty empty 17 7 0 10 -262144
-1 -1;
#X obj 1793 369 bng 20 250 50 0 feed7 empty empty 17 7 0 10 -262144
-1 -1;
#X obj 1815 369 bng 20 250 50 0 feed8 empty empty 17 7 0 10 -262144
-1 -1;
#X text 1545 371 FEEDBACK/BOUNCES;
#X obj 1664 426 hsl 169 20 0 1 0 0 decayparam decaylb empty -2 -8 0
10 -262144 -1 -1 16800 1;
#X text 1622 427 DECAY;
#X obj 1702 501 hsl 128 15 0 800 0 0 hpparam empty empty -2 -8 0 10
-262144 -1 -1 0 1;
#X obj 1702 526 hsl 128 15 600 20000 0 0 lpparam lplb empty -2 -8 0
10 -262144 -1 -1 12700 1;
#X text 1582 500 High Pass Filter;
#X text 1589 525 Low Pass Filter;
#X obj 137 650 adc~ 1 2;
#X obj 247 905 dac~ 1 2;
#X floatatom 1661 392 5 0 0 0 - feedparam_num -;
#X floatatom 1661 342 5 0 0 0 - delayparam_num -;
#X text 1701 343 ms;
#X text 1700 393 echoes;
#X text 1123 406 FEEDBACK/ECHOES;
#X text 999 535 DECAY;
#X obj 932 510 s decaylb;
#X obj 1008 722 s lplb;
#X msg 942 321 \$1 20;
#X obj 942 343 line;
#X connect 0 0 127 0;
#X connect 0 0 127 1;
#X connect 1 0 47 0;
#X connect 2 0 1 0;
#X connect 3 0 48 0;
#X connect 4 0 3 0;
#X connect 5 0 49 0;
#X connect 6 0 5 0;
#X connect 7 0 50 0;
#X connect 8 0 7 0;
#X connect 9 0 17 0;
#X connect 10 0 16 0;
#X connect 11 0 15 0;
#X connect 12 0 19 0;
#X connect 12 0 136 0;
#X connect 14 0 18 0;
#X connect 15 0 8 0;
#X connect 16 0 6 0;
#X connect 17 0 4 0;
#X connect 18 0 2 0;
#X connect 19 0 21 0;
#X connect 19 0 22 0;
#X connect 19 0 23 0;
#X connect 19 0 24 0;
#X connect 19 0 41 0;
#X connect 19 0 42 0;
#X connect 19 0 43 0;
#X connect 19 0 44 0;
#X connect 21 0 14 0;
#X connect 22 0 9 0;
#X connect 23 0 10 0;
#X connect 24 0 11 0;
#X connect 25 0 51 0;
#X connect 26 0 25 0;
#X connect 27 0 52 0;
#X connect 28 0 27 0;
#X connect 29 0 53 0;
#X connect 30 0 29 0;
#X connect 31 0 54 0;
#X connect 32 0 31 0;
#X connect 33 0 39 0;
#X connect 34 0 38 0;
#X connect 35 0 37 0;
#X connect 36 0 40 0;
#X connect 37 0 32 0;
#X connect 38 0 30 0;
#X connect 39 0 28 0;
#X connect 40 0 26 0;
#X connect 41 0 36 0;
#X connect 42 0 33 0;
#X connect 43 0 34 0;
#X connect 44 0 35 0;
#X connect 46 0 47 1;
#X connect 46 1 48 1;
#X connect 46 2 49 1;
#X connect 46 3 50 1;
#X connect 46 4 51 1;
#X connect 46 5 52 1;
#X connect 46 6 53 1;
#X connect 46 7 54 1;
#X connect 47 0 84 0;
#X connect 48 0 91 0;
#X connect 49 0 85 0;
#X connect 50 0 86 0;
#X connect 51 0 87 0;
#X connect 52 0 88 0;
#X connect 53 0 89 0;
#X connect 54 0 90 0;
#X connect 55 0 46 0;
#X connect 55 0 67 0;
#X connect 56 0 46 1;
#X connect 56 0 68 0;
#X connect 57 0 46 2;
#X connect 57 0 69 0;
#X connect 58 0 46 3;
#X connect 58 0 70 0;
#X connect 59 0 46 4;
#X connect 59 0 71 0;
#X connect 60 0 46 5;
#X connect 60 0 72 0;
#X connect 61 0 46 6;
#X connect 61 0 73 0;
#X connect 62 0 46 7;
#X connect 62 0 74 0;
#X connect 63 0 64 0;
#X connect 64 0 19 0;
#X connect 65 0 63 0;
#X connect 67 0 66 0;
#X connect 68 0 66 0;
#X connect 69 0 66 0;
#X connect 70 0 66 0;
#X connect 71 0 66 0;
#X connect 72 0 66 0;
#X connect 73 0 66 0;
#X connect 74 0 66 0;
#X connect 75 0 99 1;
#X connect 76 0 99 1;
#X connect 77 0 99 1;
#X connect 78 0 99 1;
#X connect 79 0 99 1;
#X connect 80 0 99 1;
#X connect 81 0 99 1;
#X connect 82 0 83 0;
#X connect 83 0 84 1;
#X connect 83 0 91 1;
#X connect 83 0 85 1;
#X connect 83 0 86 1;
#X connect 83 0 87 1;
#X connect 83 0 88 1;
#X connect 83 0 89 1;
#X connect 83 0 90 1;
#X connect 84 0 92 0;
#X connect 85 0 76 0;
#X connect 86 0 77 0;
#X connect 87 0 78 0;
#X connect 88 0 79 0;
#X connect 89 0 80 0;
#X connect 90 0 81 0;
#X connect 91 0 75 0;
#X connect 92 0 99 0;
#X connect 93 0 94 0;
#X connect 94 0 95 1;
#X connect 95 0 0 1;
#X connect 96 0 97 0;
#X connect 97 0 98 1;
#X connect 98 0 0 1;
#X connect 99 0 98 0;
#X connect 99 0 95 0;
#X connect 100 0 96 0;
#X connect 101 0 93 0;
#X connect 101 0 102 0;
#X connect 103 0 62 0;
#X connect 104 0 134 0;
#X connect 105 0 104 0;
#X connect 106 0 100 0;
#X connect 107 0 135 0;
#X connect 108 0 106 0;
#X connect 108 0 107 0;
#X connect 126 0 20 0;
#X connect 126 0 0 0;
#X connect 126 1 20 0;
#X connect 126 1 0 0;
#X connect 136 0 137 0;
#X connect 137 0 13 0;
#X connect 137 0 37 1;
#X connect 137 0 38 1;
#X connect 137 0 39 1;
#X connect 137 0 40 1;
#X connect 137 0 15 1;
#X connect 137 0 16 1;
#X connect 137 0 17 1;
#X connect 137 0 18 1;
#X coords 0 -1 1 1 550 260 1 1300 300;
